<?xml version="1.0" standalone="no"?>
<!DOCTYPE svg PUBLIC "-//W3C//DTD SVG 20010904//EN"
 "http://www.w3.org/TR/2001/REC-SVG-20010904/DTD/svg10.dtd">
<svg version="1.0" xmlns="http://www.w3.org/2000/svg"
 width="180.000000pt" height="180.000000pt" viewBox="0 0 180.000000 180.000000"
 preserveAspectRatio="xMidYMid meet">
<metadata>
Created by potrace 1.14, written by Peter Selinger 2001-2017
</metadata>
<g transform="translate(0.000000,180.000000) scale(0.100000,-0.100000)"
fill="#000000" stroke="none">
<path d="M20 1474 c0 -3 84 -161 122 -227 21 -38 38 -70 38 -72 0 -2 39 -75
86 -162 48 -87 100 -183 115 -214 l29 -56 0 -224 0 -224 107 2 c60 1 116 2
126 2 16 1 17 19 17 228 l0 226 172 316 c94 174 182 335 195 358 13 23 23 43
23 45 0 6 -268 3 -273 -2 -3 -3 -55 -104 -115 -225 -61 -121 -115 -226 -120
-234 -7 -10 -42 52 -127 220 -64 129 -119 236 -121 239 -4 4 -274 8 -274 4z"/>
<path d="M1471 1430 c-20 -25 -39 -47 -42 -50 -3 -3 -42 -52 -88 -110 -46 -58
-91 -115 -101 -126 -10 -12 -42 -52 -71 -90 -30 -38 -59 -75 -66 -82 -11 -11
-13 36 -13 240 0 289 9 279 -88 96 -28 -53 -76 -142 -107 -197 l-55 -99 0
-359 0 -358 117 2 c65 1 121 2 126 2 4 1 7 79 7 175 l0 173 51 64 c28 35 54
65 57 66 4 1 19 -17 33 -40 27 -44 271 -430 275 -435 2 -3 183 -5 252 -3 l33
1 -29 43 c-16 23 -102 159 -192 302 -90 143 -169 267 -177 276 -7 8 -13 20
-13 26 0 6 54 80 121 165 211 269 279 356 279 360 0 2 -61 3 -136 3 l-136 0
-37 -45z"/>
</g>
</svg>
